<svg xmlns="http://www.w3.org/2000/svg" viewBox="0 0 512 512"><g transform="translate(95.5,21.0) scale(0.9038)"><path fill="#7C5CC4" fill-rule="evenodd" d="M258.8,272.8 224.4,299.2 208.0,312.5 247.7,302.9 256.4,280.2ZM95.8,272.8 106.2,300.7 107.4,302.9 146.6,312.5 128.8,298.0ZM297.3,79.0 304.3,93.2 308.4,105.2 310.1,114.8 310.1,120.6 309.4,125.4 306.0,133.6 302.6,138.2 298.8,141.8 297.1,150.9 294.7,159.4 292.3,165.6 288.6,173.1 285.8,177.9 280.9,184.4 275.9,190.2 271.1,194.8 270.6,194.3 273.7,187.1 275.6,181.3 270.6,175.7 262.6,169.7 252.8,164.9 244.4,162.0 235.9,159.9 216.4,156.0 209.4,154.1 203.7,151.9 192.4,146.1 181.5,137.5 181.8,328.1 186.1,321.1 195.5,308.9 205.1,299.0 215.7,290.1 232.6,277.8 252.3,265.1 275.6,251.3 284.1,247.0 284.8,247.2 283.1,260.5 278.8,275.6 273.5,287.4 271.1,291.5 266.5,297.6 256.9,306.7 250.1,312.0 240.0,318.7 225.6,326.2 210.6,331.3 202.9,338.5 200.1,342.3 197.6,346.7 196.4,351.5 193.6,412.9 188.3,511.8 188.3,518.3 190.7,518.1 195.7,516.1 204.1,511.3 216.7,500.5 220.8,496.2 220.8,483.4 222.0,470.6 224.4,454.3 227.0,442.0 231.1,428.5 235.7,416.7 239.5,408.8 245.1,399.1 251.6,390.2 258.8,382.8 262.2,379.9 271.1,373.9 277.8,370.5 287.9,366.6 287.4,362.3 287.9,352.7 289.6,345.7 292.7,337.3 297.1,328.6 302.4,319.7 311.3,306.9 318.5,298.3 315.1,292.5 310.3,282.1 307.7,274.2 305.5,263.1 305.5,247.5 306.7,240.3 309.6,230.4 313.0,222.2 317.5,213.8 322.6,206.3 327.6,200.1 339.0,189.0 343.3,185.6 353.4,179.4 353.4,172.9 352.4,162.5 349.8,150.0 345.9,138.4 339.7,125.7 332.5,114.4 321.4,100.6 309.6,88.8ZM57.5,79.0 46.2,87.9 34.2,99.7 23.8,112.2 15.2,125.4 8.9,138.2 4.3,151.9 2.9,158.2 1.7,166.4 1.4,179.4 9.9,184.4 16.1,189.2 20.5,193.1 28.2,201.3 32.5,206.8 37.6,214.5 41.2,221.2 44.8,229.7 47.4,238.1 49.1,247.5 49.6,257.4 48.9,264.8 47.4,272.5 44.8,281.2 40.7,290.3 36.1,298.0 43.6,307.2 50.6,317.1 55.6,325.0 61.4,336.1 63.8,341.9 66.2,350.3 67.2,356.3 66.9,365.9 67.4,366.4 72.5,367.4 83.5,371.5 89.3,374.4 95.3,378.2 104.2,385.9 108.6,390.7 112.9,396.7 117.5,404.0 124.5,418.2 129.5,432.4 132.2,441.5 134.3,451.6 137.0,469.0 138.4,485.1 138.7,496.2 150.9,507.7 158.4,513.3 164.9,516.6 170.4,518.3 170.7,514.2 164.9,406.9 162.7,353.2 162.0,347.4 160.8,344.3 157.7,339.7 155.0,336.6 149.7,331.7 148.1,331.0 139.4,329.6 132.6,327.4 118.2,320.7 110.0,315.6 101.8,309.8 94.9,304.1 87.6,296.8 85.0,293.5 80.4,286.0 75.8,275.4 71.7,261.4 70.5,254.7 69.8,247.0 70.3,246.8 81.4,252.5 105.9,267.2 122.5,278.1 137.5,288.9 148.8,298.3 157.2,306.7 166.6,318.3 173.1,328.1 173.1,137.2 164.2,144.9 157.2,149.3 151.9,151.7 141.6,155.3 119.2,159.9 110.7,162.0 99.9,165.9 92.7,169.5 84.7,175.3 79.2,181.3 79.9,184.4 84.0,194.3 83.8,195.0 77.5,188.7 73.2,183.7 68.9,177.7 65.7,172.4 62.1,164.9 59.0,156.0 56.8,147.3 56.1,142.3 49.6,134.8 46.7,129.3 45.3,124.7 44.5,120.4 44.5,114.8 46.7,103.8 51.8,90.0ZM282.6,33.9 281.9,33.9 276.4,36.8 267.5,42.9 261.2,48.1 255.2,54.4 248.9,63.1 246.3,67.9 242.9,76.1 240.0,85.9 236.2,93.2 230.4,99.7 226.3,101.6 225.8,101.1 226.3,98.2 226.3,93.6 225.3,86.9 222.9,79.0 220.0,72.7 216.7,67.4 212.6,62.4 205.4,55.6 196.9,49.1 190.9,43.1 187.3,37.6 185.9,33.5 185.4,27.4 187.3,20.5 192.4,12.0 201.5,1.4 192.1,3.4 184.6,5.8 176.9,8.9 169.5,12.8 164.4,15.9 158.9,20.2 152.9,26.0 149.7,29.9 145.6,36.1 143.5,40.4 140.8,48.9 140.1,54.6 140.1,61.1 141.3,73.4 141.3,78.2 140.4,84.7 138.4,90.0 135.1,96.1 132.6,98.7 130.0,100.1 126.6,100.1 124.5,99.2 120.4,95.6 118.2,92.7 114.1,84.5 109.8,70.8 105.4,62.6 98.5,53.2 92.0,46.7 86.4,42.1 78.5,36.8 71.5,33.5 76.6,41.2 79.4,47.7 80.9,53.9 80.9,60.2 78.5,67.6 75.6,71.5 71.0,76.3 68.9,79.7 66.2,85.5 65.0,89.1 63.6,96.3 63.1,101.1 63.1,111.5 63.8,117.2 65.5,124.0 67.6,128.8 72.0,135.8 73.2,140.1 73.4,143.2 72.2,149.5 71.0,150.7 69.6,150.9 69.6,154.1 71.0,162.3 73.9,168.5 76.3,171.6 81.9,167.6 86.9,164.7 97.7,159.9 113.9,154.8 135.1,149.7 142.0,147.6 147.8,145.2 154.8,141.6 162.0,136.7 171.4,128.8 177.2,122.8 177.7,122.8 183.0,128.3 192.4,136.3 199.3,141.1 207.5,145.4 212.1,147.3 219.8,149.7 244.4,155.8 254.9,159.1 261.2,161.5 268.2,164.9 278.5,171.4 281.4,167.3 282.9,164.4 284.8,157.4 285.0,150.7 283.4,150.5 281.9,148.5 281.4,146.4 281.4,140.1 282.9,135.8 285.0,131.2 286.5,126.4 287.4,119.4 287.4,114.8 286.2,106.2 283.8,98.2 280.2,91.0 274.4,82.8 271.6,76.6 270.4,70.3 270.4,63.3 271.6,56.3 274.2,48.9 277.8,41.6Z"/></g></svg>
